<?xml version="1.0" encoding="UTF-8" ?>
<!DOCTYPE svg PUBLIC "-//W3C//DTD SVG 1.1//EN" "http://www.w3.org/Graphics/SVG/1.1/DTD/svg11.dtd">
<svg width="192pt" height="192pt" viewBox="0 0 192 192" version="1.1" xmlns="http://www.w3.org/2000/svg">
<g id="#323232ff">
<path fill="#323232" opacity="1.00" d=" M 88.22 5.23 C 109.84 3.17 132.10 9.49 149.60 22.34 C 165.52 33.89 177.46 50.78 183.12 69.61 C 188.29 87.05 188.19 106.10 182.73 123.46 C 176.80 142.28 164.52 158.98 148.39 170.33 C 133.22 181.03 114.70 187.12 96.09 186.83 C 75.51 187.22 55.00 179.87 39.00 167.00 C 22.21 153.68 10.47 134.20 6.47 113.16 C 3.70 98.56 4.46 83.31 8.86 69.12 C 14.40 50.92 25.87 34.60 41.08 23.19 C 54.67 12.92 71.21 6.47 88.22 5.23 M 53.59 39.83 C 49.39 40.91 45.49 43.46 43.26 47.23 C 40.38 51.96 40.32 57.64 40.38 63.00 C 40.37 86.66 40.33 110.33 40.41 133.99 C 40.20 139.63 42.01 145.81 46.88 149.13 C 53.10 153.51 61.11 153.04 68.33 152.57 C 82.12 150.85 95.38 146.06 107.74 139.83 C 122.55 132.52 137.41 124.81 149.89 113.85 C 154.14 109.98 158.94 105.20 158.65 98.98 C 159.00 91.13 152.80 85.30 147.63 80.27 C 135.06 68.62 120.00 60.12 105.02 51.99 C 92.33 45.19 78.47 39.97 64.02 38.87 C 60.52 38.58 56.99 39.04 53.59 39.83 Z" />
</g>
<g id="#ed1d37ff">
<path fill="#ed1d37" opacity="1.00" d=" M 53.59 39.83 C 56.99 39.04 60.52 38.58 64.02 38.87 C 78.47 39.97 92.33 45.19 105.02 51.99 C 120.00 60.12 135.06 68.62 147.63 80.27 C 152.80 85.30 159.00 91.13 158.65 98.98 C 158.94 105.20 154.14 109.98 149.89 113.85 C 137.41 124.81 122.55 132.52 107.74 139.83 C 95.38 146.06 82.12 150.85 68.33 152.57 C 61.11 153.04 53.10 153.51 46.88 149.13 C 42.01 145.81 40.20 139.63 40.41 133.99 C 40.33 110.33 40.37 86.66 40.38 63.00 C 40.32 57.64 40.38 51.96 43.26 47.23 C 45.49 43.46 49.39 40.91 53.59 39.83 M 46.81 62.89 C 46.85 84.03 46.82 105.16 46.83 126.30 C 53.71 126.37 60.59 126.32 67.48 126.33 C 67.58 118.80 67.33 111.27 67.62 103.75 C 72.21 111.14 76.03 118.98 80.58 126.39 C 88.26 126.24 95.95 126.41 103.63 126.29 C 97.46 115.55 91.66 104.60 85.37 93.92 C 91.20 82.89 97.51 72.12 103.57 61.21 C 95.80 61.21 88.04 61.11 80.28 61.26 C 76.11 68.87 71.80 76.41 67.61 84.01 C 67.35 76.41 67.56 68.80 67.48 61.19 C 61.63 61.19 55.78 61.19 49.93 61.18 C 48.73 61.35 46.12 60.62 46.81 62.89 Z" />
</g>
<g id="#ffffffff">
<path fill="#ffffff" opacity="1.00" d=" M 46.81 62.89 C 46.12 60.62 48.73 61.35 49.93 61.18 C 55.78 61.19 61.63 61.19 67.48 61.19 C 67.56 68.80 67.35 76.41 67.61 84.01 C 71.80 76.41 76.11 68.87 80.28 61.26 C 88.04 61.11 95.80 61.21 103.57 61.21 C 97.51 72.12 91.20 82.89 85.37 93.92 C 91.66 104.60 97.46 115.55 103.63 126.29 C 95.95 126.41 88.26 126.24 80.58 126.39 C 76.03 118.98 72.21 111.14 67.62 103.75 C 67.33 111.27 67.58 118.80 67.48 126.33 C 60.59 126.32 53.71 126.37 46.83 126.30 C 46.82 105.16 46.85 84.03 46.81 62.89 Z" />
</g>
</svg>
